<?xml version="1.0" encoding="UTF-8" ?>
<!DOCTYPE svg PUBLIC "-//W3C//DTD SVG 1.1//EN" "http://www.w3.org/Graphics/SVG/1.1/DTD/svg11.dtd">
<svg width="2830pt" height="1913pt" viewBox="0 0 2830 1913" version="1.1" xmlns="http://www.w3.org/2000/svg">
<g id="#4280f6ff">
<path fill="#4280f6" opacity="1.00" d=" M 464.26 667.92 C 464.24 655.92 474.81 645.23 486.80 645.05 C 538.21 644.94 589.63 645.03 641.04 645.00 C 645.71 645.05 650.53 644.59 655.03 646.13 C 664.37 648.96 671.38 658.23 671.26 668.04 C 671.24 694.78 671.25 721.51 671.25 748.25 C 689.72 747.25 708.59 751.63 724.10 761.89 C 747.25 776.74 762.31 803.37 762.75 830.91 C 762.75 937.93 762.74 1044.96 762.76 1151.99 C 763.17 1172.19 755.89 1192.41 742.80 1207.80 C 731.61 1221.15 716.20 1230.89 699.33 1235.27 C 690.20 1237.77 680.67 1238.23 671.25 1238.00 C 671.73 1244.69 670.17 1251.67 665.95 1257.00 C 659.19 1266.27 646.05 1269.95 635.38 1265.81 C 624.20 1261.77 617.03 1249.76 618.23 1238.00 C 584.57 1238.00 550.91 1237.99 517.25 1238.01 C 518.24 1247.56 513.92 1257.54 505.83 1262.86 C 495.96 1269.81 481.39 1268.81 472.72 1260.37 C 466.46 1254.82 463.65 1246.22 464.23 1238.00 C 442.96 1239.21 421.18 1232.89 404.61 1219.33 C 384.94 1203.77 372.94 1179.15 372.75 1154.07 C 372.75 1048.37 372.76 942.67 372.75 836.97 C 372.61 828.92 373.25 820.83 375.20 813.01 C 380.10 792.54 393.04 774.20 410.53 762.54 C 426.18 751.84 445.42 747.23 464.24 748.25 C 464.26 721.47 464.22 694.69 464.26 667.92 M 487.99 690.96 C 488.02 710.05 487.99 729.15 488.00 748.25 C 541.25 748.25 594.50 748.25 647.75 748.25 C 647.76 729.48 647.74 710.72 647.76 691.96 C 647.85 688.64 646.46 685.18 643.63 683.31 C 640.86 681.23 637.24 681.80 634.02 681.75 C 588.32 681.77 542.62 681.73 496.93 681.76 C 492.12 681.69 487.76 686.15 487.99 690.96 M 441.27 859.06 C 441.22 898.39 441.27 937.72 441.24 977.05 C 456.77 967.87 472.24 958.61 487.74 949.38 C 487.73 919.87 487.81 890.36 487.70 860.86 C 487.75 849.12 477.89 838.46 466.16 837.77 C 453.91 836.57 441.91 846.74 441.27 859.06 M 554.72 841.78 C 548.12 846.15 544.24 854.12 544.49 861.99 C 544.53 885.21 544.45 908.42 544.53 931.64 C 510.10 952.17 475.65 972.66 441.23 993.20 C 441.28 1002.69 441.24 1012.18 441.24 1021.67 C 475.65 1012.14 510.06 1002.63 544.47 993.12 C 544.54 1033.04 544.48 1072.97 544.51 1112.89 C 536.84 1118.53 529.19 1124.19 521.50 1129.80 C 521.50 1136.00 521.50 1142.21 521.50 1148.43 C 536.98 1144.04 552.36 1139.27 567.90 1135.12 C 583.39 1139.41 598.79 1144.06 614.25 1148.46 C 614.24 1142.28 614.26 1136.09 614.24 1129.91 C 606.48 1124.22 598.71 1118.55 590.99 1112.80 C 591.02 1072.90 590.97 1033.00 591.02 993.10 C 625.52 1002.60 660.00 1012.17 694.49 1021.70 C 694.50 1012.23 694.50 1002.75 694.50 993.28 C 660.01 972.71 625.51 952.18 591.01 931.64 C 590.99 908.09 590.99 884.55 591.01 861.00 C 591.16 852.03 585.49 843.38 577.31 839.77 C 570.12 836.43 561.19 837.18 554.72 841.78 M 660.38 840.41 C 652.87 844.29 647.81 852.54 647.98 861.02 C 648.09 890.56 647.84 920.10 648.11 949.63 C 663.66 958.65 678.99 968.06 694.51 977.14 C 694.49 940.75 694.50 904.35 694.50 867.96 C 694.47 863.30 694.85 858.50 693.35 854.01 C 691.07 846.69 684.98 840.65 677.56 838.61 C 671.89 836.95 665.58 837.59 660.38 840.41 M 648.02 1023.17 C 647.98 1057.48 648.01 1091.80 648.00 1126.11 C 648.11 1138.10 658.95 1148.64 670.92 1148.52 C 680.67 1148.74 690.01 1142.09 693.14 1132.88 C 694.88 1128.12 694.48 1122.99 694.50 1118.02 C 694.51 1090.70 694.49 1063.37 694.51 1036.05 C 679.02 1031.70 663.51 1027.46 648.02 1023.17 M 441.25 1035.96 C 441.24 1065.98 441.27 1096.01 441.24 1126.04 C 441.25 1136.61 449.71 1146.24 460.04 1148.10 C 470.41 1150.32 481.67 1144.18 485.73 1134.44 C 487.78 1129.91 487.83 1124.84 487.76 1119.97 C 487.72 1087.69 487.79 1055.40 487.72 1023.12 C 472.23 1027.39 456.75 1031.70 441.25 1035.96 Z" />
<path fill="#4280f6" opacity="1.00" d=" M 877.25 813.25 C 909.51 813.24 941.77 813.25 974.03 813.25 C 996.67 813.53 1019.59 813.89 1041.72 819.25 C 1056.82 822.91 1071.15 829.89 1083.03 839.95 C 1097.39 851.89 1108.18 867.87 1114.52 885.40 C 1122.06 906.26 1123.79 928.98 1121.01 950.91 C 1118.27 971.81 1110.88 992.31 1098.31 1009.33 C 1087.43 1024.12 1072.33 1035.89 1054.95 1041.97 C 1035.46 1048.79 1014.60 1049.88 994.15 1050.64 C 978.94 1051.07 963.72 1051.02 948.50 1051.00 C 948.50 1099.50 948.51 1148.00 948.50 1196.50 C 924.75 1196.50 901.00 1196.50 877.25 1196.50 C 877.25 1068.75 877.24 941.00 877.25 813.25 M 948.50 881.50 C 948.50 915.25 948.50 949.00 948.50 982.75 C 971.02 982.64 993.98 983.82 1015.94 977.86 C 1026.09 975.12 1036.25 970.25 1042.64 961.59 C 1049.12 952.85 1050.62 941.55 1050.50 930.95 C 1050.20 920.50 1048.40 909.47 1041.87 900.97 C 1035.73 892.70 1025.93 888.14 1016.19 885.62 C 994.06 880.11 971.08 881.78 948.50 881.50 Z" />
<path fill="#4280f6" opacity="1.00" d=" M 1725.25 813.25 C 1748.33 813.25 1771.41 813.25 1794.50 813.25 C 1794.51 845.25 1794.49 877.25 1794.51 909.25 C 1808.33 909.25 1822.16 909.25 1835.99 909.25 C 1836.00 930.25 1836.00 951.25 1836.00 972.25 C 1822.16 972.25 1808.33 972.24 1794.50 972.26 C 1794.50 1047.00 1794.51 1121.75 1794.50 1196.50 C 1771.41 1196.50 1748.33 1196.50 1725.25 1196.50 C 1725.25 1121.75 1725.25 1047.00 1725.25 972.25 C 1714.08 972.24 1702.92 972.25 1691.75 972.25 C 1691.75 951.25 1691.75 930.25 1691.76 909.25 C 1702.91 909.24 1714.08 909.25 1725.24 909.24 C 1725.25 877.25 1725.24 845.25 1725.25 813.25 Z" />
<path fill="#4280f6" opacity="1.00" d=" M 1877.75 813.25 C 1901.50 813.24 1925.25 813.25 1948.99 813.25 C 1949.02 868.22 1948.98 923.19 1949.01 978.16 C 1988.50 923.22 2027.96 868.25 2067.39 813.26 C 2096.04 813.23 2124.69 813.27 2153.34 813.24 C 2105.37 876.09 2057.16 938.77 2009.18 1001.61 C 2057.24 1066.56 2105.25 1131.54 2153.30 1196.50 C 2124.64 1196.51 2095.99 1196.49 2067.33 1196.51 C 2027.91 1140.52 1988.45 1084.55 1949.01 1028.57 C 1948.98 1084.55 1949.01 1140.52 1949.00 1196.50 C 1925.25 1196.50 1901.50 1196.51 1877.75 1196.49 C 1877.75 1068.75 1877.75 941.00 1877.75 813.25 Z" />
<path fill="#4280f6" opacity="1.00" d=" M 1269.56 903.74 C 1310.20 898.44 1353.05 909.24 1385.38 934.71 C 1412.45 955.67 1431.72 986.30 1439.18 1019.69 C 1444.74 1044.52 1444.59 1070.86 1437.21 1095.31 C 1427.62 1127.74 1406.24 1156.24 1378.54 1175.49 C 1347.96 1196.99 1309.42 1206.70 1272.30 1202.31 C 1234.19 1198.13 1198.08 1178.85 1173.30 1149.62 C 1148.21 1120.51 1135.13 1081.41 1137.87 1043.06 C 1139.94 1009.65 1154.01 977.28 1176.56 952.59 C 1200.51 926.03 1234.06 908.31 1269.56 903.74 M 1278.50 966.80 C 1253.20 970.52 1230.65 987.14 1218.36 1009.38 C 1200.79 1040.06 1204.57 1080.93 1226.49 1108.46 C 1239.25 1124.81 1258.38 1136.16 1278.98 1138.98 C 1297.71 1141.80 1317.32 1137.52 1333.26 1127.31 C 1349.82 1116.83 1362.45 1100.42 1368.61 1081.83 C 1375.40 1061.94 1374.93 1039.63 1367.14 1020.10 C 1360.56 1003.20 1348.58 988.42 1333.27 978.68 C 1317.24 968.27 1297.39 963.95 1278.50 966.80 Z" />
<path fill="#4280f6" opacity="1.00" d=" M 1505.97 924.03 C 1535.99 899.78 1580.12 895.90 1614.63 912.55 C 1629.43 919.70 1642.33 930.95 1650.90 945.03 C 1659.01 958.12 1663.30 973.45 1663.85 988.81 C 1641.35 988.66 1618.85 988.81 1596.35 988.73 C 1594.88 982.67 1592.49 976.53 1587.71 972.31 C 1580.87 965.98 1570.56 964.76 1561.79 966.92 C 1552.17 969.21 1543.98 977.70 1543.28 987.76 C 1543.20 992.37 1542.59 997.54 1545.37 1001.57 C 1548.53 1005.82 1553.68 1007.75 1558.38 1009.79 C 1580.15 1018.39 1603.28 1023.32 1624.43 1033.52 C 1638.21 1040.09 1651.57 1048.83 1660.29 1061.65 C 1665.62 1069.49 1668.90 1078.61 1670.37 1087.95 C 1673.43 1107.19 1671.29 1127.41 1663.11 1145.18 C 1656.01 1160.86 1644.55 1174.52 1630.43 1184.35 C 1612.08 1197.32 1589.41 1203.78 1567.00 1203.26 C 1546.62 1203.16 1525.80 1198.63 1508.44 1187.60 C 1494.86 1179.08 1483.95 1166.59 1476.77 1152.30 C 1469.19 1137.63 1465.31 1121.33 1463.51 1105.00 C 1486.75 1105.00 1509.98 1105.00 1533.21 1105.00 C 1535.61 1113.14 1538.56 1121.38 1544.02 1128.03 C 1548.46 1133.59 1554.90 1137.50 1561.90 1138.87 C 1570.27 1140.54 1579.38 1140.20 1587.09 1136.23 C 1595.31 1132.23 1601.45 1124.02 1602.32 1114.83 C 1602.83 1108.14 1602.64 1100.46 1597.69 1095.32 C 1593.11 1090.82 1587.18 1088.09 1581.40 1085.51 C 1561.53 1077.03 1540.28 1071.99 1521.09 1061.89 C 1506.73 1054.51 1492.95 1044.71 1484.29 1030.79 C 1474.88 1015.82 1472.73 997.39 1474.52 980.10 C 1476.91 958.15 1488.81 937.76 1505.97 924.03 Z" />
<path fill="#4280f6" opacity="1.00" d=" M 2282.51 903.80 C 2317.95 899.11 2355.07 906.57 2385.50 925.51 C 2407.40 939.05 2425.65 958.38 2437.93 981.02 C 2458.86 1019.66 2462.67 1067.82 2445.80 1108.65 C 2432.78 1140.60 2408.19 1167.47 2378.03 1184.08 C 2355.77 1196.37 2330.42 1203.15 2304.98 1203.26 C 2275.33 1203.76 2245.62 1195.27 2220.67 1179.28 C 2200.65 1166.50 2183.62 1149.03 2171.55 1128.58 C 2155.74 1102.07 2148.62 1070.52 2151.41 1039.79 C 2154.13 1007.82 2167.81 977.02 2189.28 953.22 C 2213.19 926.41 2246.85 908.43 2282.51 903.80 M 2291.57 966.83 C 2260.31 971.48 2233.70 995.83 2224.55 1025.81 C 2217.61 1047.74 2219.85 1072.22 2229.91 1092.83 C 2241.44 1116.64 2264.57 1134.81 2290.91 1138.78 C 2315.90 1143.07 2342.50 1134.29 2360.31 1116.33 C 2380.89 1096.50 2390.29 1066.18 2385.44 1038.13 C 2381.45 1013.51 2366.54 990.80 2345.20 977.80 C 2329.34 968.02 2310.00 963.98 2291.57 966.83 Z" />
</g>
</svg>
